<svg width="55" height="55" viewBox="0 0 55 55" fill="none" xmlns="http://www.w3.org/2000/svg">
<rect width="55" height="55" fill="#1E1E1E"/>
<rect width="1300" height="790" transform="translate(-238 -516)" fill="white"/>
<rect width="55" height="55" rx="5" fill="#D9D9D9"/>
<g clip-path="url(#clip0_0_1)">
<path d="M41.0881 22.4363C41.2694 22.9291 41.1164 23.4785 40.7256 23.8297L38.2731 26.0613C38.3354 26.5314 38.3694 27.0129 38.3694 27.5C38.3694 27.9871 38.3354 28.4686 38.2731 28.9387L40.7256 31.1703C41.1164 31.5215 41.2694 32.0709 41.0881 32.5637C40.8389 33.2377 40.5387 33.8834 40.1932 34.5064L39.927 34.9652C39.5532 35.5883 39.134 36.1773 38.6752 36.7324C38.341 37.1402 37.786 37.2762 37.2875 37.1176L34.1326 36.115C33.3737 36.6984 32.5354 37.1855 31.6405 37.5537L30.9325 40.7879C30.8192 41.3033 30.4227 41.7111 29.9016 41.7961C29.12 41.9264 28.3157 41.9943 27.4944 41.9943C26.6731 41.9943 25.8688 41.9264 25.0871 41.7961C24.566 41.7111 24.1696 41.3033 24.0563 40.7879L23.3483 37.5537C22.4533 37.1855 21.6151 36.6984 20.8561 36.115L17.7069 37.1232C17.2084 37.2818 16.6533 37.1402 16.3192 36.7381C15.8604 36.183 15.4412 35.5939 15.0674 34.9709L14.8012 34.5121C14.4557 33.8891 14.1555 33.2434 13.9063 32.5693C13.725 32.0766 13.878 31.5271 14.2688 31.176L16.7213 28.9443C16.659 28.4686 16.625 27.9871 16.625 27.5C16.625 27.0129 16.659 26.5314 16.7213 26.0613L14.2688 23.8297C13.878 23.4785 13.725 22.9291 13.9063 22.4363C14.1555 21.7623 14.4557 21.1166 14.8012 20.4936L15.0674 20.0348C15.4412 19.4117 15.8604 18.8227 16.3192 18.2676C16.6533 17.8598 17.2084 17.7238 17.7069 17.8824L20.8617 18.885C21.6207 18.3016 22.459 17.8145 23.3539 17.4463L24.0619 14.2121C24.1752 13.6967 24.5717 13.2889 25.0928 13.2039C25.8744 13.068 26.6787 13 27.5 13C28.3213 13 29.1256 13.068 29.9073 13.1982C30.4283 13.2832 30.8248 13.691 30.9381 14.2064L31.6461 17.4406C32.541 17.8088 33.3793 18.2959 34.1383 18.8793L37.2932 17.8768C37.7916 17.7182 38.3467 17.8598 38.6809 18.2619C39.1397 18.817 39.5588 19.4061 39.9326 20.0291L40.1989 20.4879C40.5444 21.1109 40.8446 21.7566 41.0938 22.4307L41.0881 22.4363ZM27.5 32.0312C30.0035 32.0312 32.0313 30.0035 32.0313 27.5C32.0313 24.9965 30.0035 22.9688 27.5 22.9688C24.9965 22.9688 22.9688 24.9965 22.9688 27.5C22.9688 30.0035 24.9965 32.0312 27.5 32.0312Z" fill="#959595"/>
</g>
<defs>
<clipPath id="clip0_0_1">
<rect width="29" height="29" fill="white" transform="translate(13 13)"/>
</clipPath>
</defs>
</svg>
